<svg version="1.1" id="Layer_1" xmlns="http://www.w3.org/2000/svg" xmlns:xlink="http://www.w3.org/1999/xlink" x="0px" y="0px"
	 width="100%" viewBox="0 0 818 1030" enable-background="new 0 0 818 1030" xml:space="preserve">
<path fill="#188037" opacity="1.000000" stroke="none" 
	d="
M266.903351,88.167168 
	C266.919739,85.365135 266.936127,82.563110 266.981781,78.957153 
	C266.968292,77.466423 266.925507,76.779625 266.882721,76.092819 
	C266.888031,75.616386 266.893372,75.139961 266.938538,73.861176 
	C267.053101,70.329170 267.127808,67.599510 267.202484,64.869850 
	C267.464539,62.108986 268.259399,59.276085 267.897522,56.599583 
	C266.224518,44.225430 273.021820,36.022354 281.750854,29.290106 
	C287.865723,24.574020 294.115936,19.581053 302.396240,18.546535 
	C304.474762,18.286852 306.231415,15.993581 308.349152,15.414498 
	C319.169250,12.455835 330.059174,9.752520 341.780762,6.786564 
	C345.110687,6.708046 347.612793,7.088333 350.053253,6.846621 
	C359.048218,5.955729 368.022827,4.858889 377.005066,3.839503 
	C377.506958,3.867495 378.008820,3.895489 379.036011,3.890224 
	C379.756836,3.762846 379.887238,3.612216 379.952484,3.405075 
	C381.327759,2.860528 382.703064,2.315982 384.039185,1.385718 
	C385.714355,1.000000 387.428711,1.000000 389.639069,1.376348 
	C393.515472,2.708761 396.987854,4.870300 400.000000,1.000000 
	C402.370575,1.000000 404.741119,1.000000 407.575256,1.413927 
	C412.162750,3.529574 416.198608,3.958507 420.000000,1.000000 
	C421.066681,1.000000 422.133331,1.000000 423.600006,1.000003 
	C425.405182,1.664866 426.790100,2.860197 428.218597,2.914757 
	C448.587555,3.692731 468.890778,5.397814 488.499695,11.117785 
	C500.723389,14.683467 512.630737,19.491581 524.369202,24.474426 
	C528.309753,26.147144 531.290466,30.080963 534.524536,33.460022 
	C534.618042,34.024048 534.896912,34.109344 535.175842,34.194633 
	C538.279541,40.647980 541.768433,46.937901 540.719727,54.592854 
	C540.203064,58.363480 539.742859,62.317253 540.309265,66.027527 
	C541.924500,76.607727 538.932861,86.661957 537.580627,96.913567 
	C537.193542,99.848396 538.060364,103.254295 536.862732,105.721008 
	C532.753113,114.185562 533.716736,123.591034 531.104614,132.347565 
	C524.985901,152.859039 519.572815,173.580795 513.845886,194.209625 
	C513.148499,196.721817 512.278259,199.186066 511.311523,202.228256 
	C500.468323,194.781052 490.534027,187.958115 480.301514,181.069763 
	C480.003265,181.004349 479.990082,180.993240 479.990082,180.993240 
	C472.608337,177.644760 465.269318,174.197495 457.830750,170.980392 
	C452.304779,168.590469 446.773224,166.071487 441.013824,164.407059 
	C436.215393,163.020340 431.104675,162.442780 426.092743,162.119003 
	C412.753571,161.257263 399.423615,160.159988 386.186920,163.780334 
	C380.312378,165.387054 373.897003,165.092499 368.093353,166.862061 
	C361.549408,168.857315 355.377686,172.117096 349.114319,174.980576 
	C331.500183,183.033386 315.375610,193.563751 299.707947,204.848373 
	C298.285675,205.872757 296.687042,206.652222 294.547852,207.911987 
	C291.633026,199.185822 288.895508,190.990387 286.285706,182.370255 
	C286.475769,181.700165 286.538147,181.454773 286.600525,181.209381 
	C286.397949,181.466019 286.195343,181.722641 285.992737,181.979279 
	C284.794617,177.662781 283.596527,173.346298 282.514893,168.514893 
	C282.623230,167.722183 282.615082,167.444397 282.606934,167.166595 
	C282.407471,167.435120 282.208008,167.703659 282.008545,167.972198 
	C281.862732,167.006546 281.716888,166.040909 281.668945,164.565155 
	C281.444458,163.962997 281.122040,163.870941 280.799652,163.778870 
	C277.181824,148.437317 273.489288,133.112793 269.985931,117.745140 
	C268.731812,112.243935 267.934723,106.638542 266.805878,100.298546 
	C266.756256,95.733315 266.829803,91.950241 266.903351,88.167168 
z"/>
<path fill="#22B14C" opacity="1.000000" stroke="none" 
	d="
M701.101196,806.829773 
	C738.052612,836.759705 776.837036,864.144348 816.979309,889.490417 
	C808.169067,896.584778 799.801453,903.278931 791.481934,910.032410 
	C779.604370,919.674500 767.691284,929.274780 755.925842,939.052429 
	C745.312622,947.872559 734.971436,957.020691 724.332397,965.808777 
	C716.795105,972.034607 708.900330,977.825562 701.274902,983.947388 
	C690.971436,992.219055 680.765381,1000.612366 670.532166,1008.971375 
	C663.011963,1015.114319 655.595703,1021.389893 647.923523,1027.335815 
	C646.726685,1028.263428 643.955078,1028.518188 642.687927,1027.769653 
	C635.776184,1023.687500 628.406067,1019.979126 622.488098,1014.692871 
	C605.703918,999.700623 589.547607,984.005615 573.034912,967.934692 
	C568.129578,962.236511 563.333313,957.190979 558.537048,952.145386 
	C555.359802,949.258972 551.917786,946.612000 549.052979,943.443115 
	C538.720886,932.014832 528.406067,920.561646 518.416016,908.835693 
	C505.385437,893.540894 492.702484,877.950500 479.804871,862.541748 
	C474.218140,855.867249 468.274231,849.484253 462.844910,842.687317 
	C456.701385,834.996460 450.939789,826.999756 445.036255,819.118042 
	C431.572601,801.142822 417.982239,783.260132 404.714691,765.141174 
	C394.623077,751.359497 384.900574,737.305908 375.110535,723.305725 
	C370.411041,716.585205 365.864594,709.754456 361.371582,702.893372 
	C348.345978,683.002441 335.087128,663.255310 322.498596,643.090332 
	C314.109344,629.652039 306.733490,615.582275 298.860138,601.820190 
	C294.074493,593.455261 289.027130,585.235168 284.416199,576.776245 
	C277.804474,564.646729 271.092865,552.545776 265.127747,540.095459 
	C255.423264,519.840332 246.070007,499.408905 236.991806,478.864838 
	C231.224228,465.812683 226.086029,452.474915 220.934311,439.161255 
	C218.322830,432.412292 216.247070,425.452057 214.037613,418.552612 
	C211.632370,411.041809 209.237473,403.523712 207.072800,395.941772 
	C206.146255,392.696411 205.985733,389.239258 205.179306,385.951416 
	C202.416061,374.685211 199.009979,363.549377 196.828171,352.175995 
	C194.877838,342.009216 194.207291,331.595703 193.004776,321.287262 
	C192.604065,317.852020 192.304718,314.404999 192.101501,310.155121 
	C192.478806,307.083557 192.875793,304.823120 192.916077,302.556335 
	C193.011780,297.172943 193.038361,291.783813 192.889923,286.402557 
	C192.819611,283.853729 192.284180,281.317688 191.959488,278.775848 
	C192.949860,272.364502 194.071640,265.969849 194.888458,259.536469 
	C195.526611,254.510376 195.434174,249.373962 196.313293,244.400940 
	C197.189148,239.446411 198.755112,234.599106 200.224609,229.767487 
	C202.946655,220.817551 205.725784,211.882599 208.654678,202.998627 
	C211.637131,193.952209 214.918503,185.004395 217.906281,175.959671 
	C221.860382,163.989487 225.413147,151.881714 229.586639,139.990402 
	C234.027374,127.337708 239.056595,114.892784 243.707077,102.312126 
	C247.578018,91.840279 251.215408,81.282013 255.102036,70.816162 
	C255.743744,69.088188 257.134918,67.638527 258.563660,66.527878 
	C259.016602,75.664795 259.085541,84.334076 259.154480,93.003365 
	C259.785858,97.865845 260.216309,102.765976 261.117981,107.577805 
	C261.739197,110.893021 263.299927,114.030663 263.938538,117.344444 
	C265.489166,125.390900 266.335266,133.591919 268.232086,141.547836 
	C270.344696,150.408615 273.387878,159.043930 275.865784,167.822617 
	C277.274078,172.811920 278.054626,177.991974 279.659698,182.909256 
	C282.731537,192.320236 286.154510,201.617737 289.497009,210.938919 
	C294.071503,223.695862 298.457336,236.528381 303.383301,249.149246 
	C308.766296,262.941071 314.637848,276.543243 320.364075,290.199707 
	C324.174530,299.287231 327.975433,308.382629 332.011688,317.370728 
	C337.222961,328.975616 342.357178,340.631714 348.072479,351.990112 
	C359.402191,374.506226 370.726868,397.040405 382.771973,419.176239 
	C393.300690,438.525360 404.453156,457.560516 415.990051,476.328705 
	C428.708527,497.019104 441.946167,517.402344 455.408905,537.618896 
	C463.687469,550.050476 472.908813,561.850403 481.515717,574.068665 
	C486.101532,580.578613 489.953461,587.621643 494.738525,593.970398 
	C499.253204,599.960266 504.709412,605.230164 509.481598,611.038452 
	C519.266357,622.947693 528.651123,635.191162 538.613831,646.946777 
	C547.592529,657.541260 557.033875,667.749939 566.430054,677.982849 
	C581.551941,694.451355 596.753418,710.847778 612.036255,727.166931 
	C616.115112,731.522339 620.612122,735.486145 625.144409,740.243530 
	C627.300598,742.849243 629.105713,744.983582 631.190430,746.796387 
	C633.671326,748.953979 636.392273,750.835449 639.009216,752.836609 
	C646.281982,759.344666 653.554749,765.852722 660.954102,773.015015 
	C664.348267,776.805115 667.497742,780.078369 670.926514,783.026672 
	C673.082703,784.880615 675.657959,786.247253 678.045227,787.832520 
	C680.334595,789.764954 682.623901,791.697388 685.139404,794.246643 
	C690.610779,798.852234 695.855957,802.841003 701.101196,806.829773 
z"/>
<path fill="#22B14C" opacity="1.000000" stroke="none" 
	d="
M324.589478,877.352722 
	C321.715546,881.407898 319.019958,885.604492 315.936249,889.493225 
	C303.889862,904.684753 291.926453,919.950012 279.530914,934.854126 
	C269.941772,946.384033 259.829407,957.483826 249.804016,968.644043 
	C244.063507,975.034485 238.032211,981.163696 231.606079,987.697998 
	C226.430847,991.923462 221.781342,995.861389 217.131821,999.799316 
	C210.501877,1006.820496 206.036896,1007.478210 197.514328,1003.879333 
	C184.283401,998.292175 170.823853,993.248291 157.560013,987.736328 
	C152.184326,985.502441 147.135406,982.493164 141.811752,980.119385 
	C137.890656,978.370911 133.710251,977.212708 129.741394,975.560852 
	C120.867088,971.867371 112.341217,966.892029 103.136070,964.558289 
	C93.136551,962.023132 84.302864,957.007751 74.674667,953.829956 
	C69.002228,951.957764 63.517956,949.470154 58.054428,947.024048 
	C53.403999,944.941956 49.106003,941.312683 44.294949,940.511108 
	C34.924736,938.949707 27.155306,933.718384 18.384949,930.926331 
	C14.312499,929.630005 10.432613,927.732483 6.454748,926.134033 
	C3.264265,924.852051 3.309229,922.980042 5.604958,920.919556 
	C13.814909,913.550720 22.103334,906.269348 30.311840,898.898926 
	C35.466827,894.270325 40.608402,889.621887 45.621529,884.841309 
	C55.595818,875.329712 65.477280,865.720703 76.048309,856.039185 
	C77.648979,855.329590 78.750519,854.885437 79.525467,854.113464 
	C96.016846,837.683533 112.486900,821.231995 128.893585,804.717590 
	C129.835297,803.769653 130.202255,802.250671 130.836731,800.997498 
	C136.084686,795.305298 141.323441,789.604614 146.582275,783.922485 
	C163.302002,765.857300 180.308838,748.047913 196.674164,729.667236 
	C212.788071,711.569031 228.407410,693.022278 243.951462,674.427917 
	C254.264572,662.090942 264.146301,649.388977 274.064484,636.727661 
	C281.156372,627.674500 287.988464,618.417908 295.612122,608.360718 
	C298.678284,613.365479 301.496368,617.642517 303.984650,622.103455 
	C307.613159,628.608643 310.668427,635.453796 314.575287,641.778870 
	C320.499969,651.370667 326.947723,660.639282 333.170441,670.046997 
	C340.087952,680.505127 347.070648,690.921082 353.891479,701.441956 
	C357.721527,707.349731 361.109192,713.547791 365.019745,719.398865 
	C367.983917,723.833862 371.568939,727.848511 374.686249,732.187744 
	C382.513580,743.083069 390.007660,754.227051 398.117767,764.904968 
	C400.924164,768.599915 399.741821,771.308472 397.871033,774.202698 
	C394.388092,779.590942 390.626587,784.799194 386.977478,790.079895 
	C374.313293,808.406616 361.766632,826.816040 348.937103,845.026245 
	C341.404846,855.717468 333.421722,866.091003 325.335236,876.514038 
	C324.882538,876.731384 324.735992,877.042053 324.589478,877.352722 
z"/>
<path fill="#22B14C" opacity="1.000000" stroke="none" 
	d="
M552.464966,55.996284 
	C552.743103,58.520531 552.540588,61.219528 553.383484,63.538475 
	C556.845764,73.063377 561.066162,82.330315 564.180420,91.959709 
	C568.252136,104.550026 571.486267,117.409416 575.182739,130.123367 
	C579.030640,143.357834 583.254944,156.488281 586.839111,169.792328 
	C589.935242,181.284912 592.287231,192.976105 595.123352,204.541473 
	C596.369873,209.624786 598.329895,214.545929 599.385254,219.660538 
	C601.167236,228.296677 602.517944,237.022995 603.983032,245.722656 
	C604.445435,248.467834 604.694031,251.249008 605.054626,254.911224 
	C605.026794,264.840729 604.984863,273.872742 604.601501,283.170258 
	C604.100952,287.666046 603.941833,291.896362 603.532227,296.258301 
	C603.226440,296.950775 603.171021,297.511566 603.045776,298.527771 
	C603.056274,303.077362 603.136719,307.171570 603.217224,311.265747 
	C601.846313,318.177490 599.224915,325.120728 599.398010,331.993591 
	C599.656494,342.256714 596.030334,351.545288 594.290771,361.269836 
	C593.001221,368.478485 590.285828,375.422302 588.443054,382.545563 
	C587.383972,386.639709 587.058167,390.927490 585.943359,395.002533 
	C583.819824,402.764587 581.581299,410.509552 578.988525,418.124695 
	C576.616272,425.092316 573.572815,431.829010 571.094788,438.763794 
	C569.489624,443.255798 568.628784,448.016693 566.979736,452.489471 
	C562.973206,463.356354 558.779297,474.156250 554.514954,484.925415 
	C550.013916,496.292511 545.457458,507.640656 540.700134,518.902039 
	C538.284302,524.620850 535.363770,530.125977 532.688843,535.735962 
	C528.462463,544.599792 524.336487,553.512756 520.010315,562.327454 
	C514.954590,572.628662 509.729584,582.846802 503.889252,594.471924 
	C500.440063,590.217773 497.464722,586.909241 494.891663,583.312866 
	C482.763397,566.361023 470.668915,549.383667 458.718628,532.306152 
	C452.245972,523.056519 445.891418,513.711426 439.847290,504.178772 
	C435.094086,496.682098 431.055389,488.735626 426.411041,481.165802 
	C421.609589,473.339935 416.427155,465.748657 411.478607,458.011749 
	C409.336182,454.662140 407.185699,451.293243 405.409119,447.747589 
	C404.800293,446.532471 404.763092,444.447144 405.405701,443.275513 
	C416.881287,422.353180 428.783234,401.660248 440.002716,380.603241 
	C449.094666,363.539215 457.475983,346.093628 466.023560,328.743927 
	C469.369873,321.951538 472.256775,314.934326 475.444641,308.062073 
	C488.479523,279.962250 499.535095,251.068115 510.113617,221.979431 
	C512.296021,215.978302 515.005859,210.144455 516.824219,204.040344 
	C521.097900,189.693848 524.896973,175.206604 529.075195,160.830688 
	C530.188965,156.998718 532.094360,153.403519 533.410950,149.621170 
	C534.131226,147.551865 534.341431,145.309372 534.848633,143.160812 
	C536.841064,134.721603 539.042847,126.326508 540.799866,117.839050 
	C541.831299,112.857117 542.170776,107.731918 543.284424,102.085312 
	C543.987366,100.384705 544.392456,99.276924 544.439819,98.154037 
	C544.696594,92.074615 544.864807,85.991447 545.063477,79.909576 
	C545.681030,76.243347 546.298523,72.577126 546.910645,68.010666 
	C546.872314,64.069992 546.839478,61.029552 546.806580,57.989117 
	C546.806641,55.226887 546.806641,52.464661 546.441040,49.114460 
	C546.136658,47.679920 546.197998,46.833347 546.298889,45.441105 
	C548.090515,48.693459 549.560791,51.362495 551.031067,54.031540 
	C551.031067,54.031540 551.008545,53.965878 551.088867,54.291786 
	C551.601135,55.077221 552.033020,55.536755 552.464966,55.996284 
z"/>
</svg>