<svg version="1.1" id="Layer_1" xmlns="http://www.w3.org/2000/svg" xmlns:xlink="http://www.w3.org/1999/xlink" x="0px" y="0px"
	 width="100%" viewBox="0 0 1024 1024" enable-background="new 0 0 1024 1024" xml:space="preserve">
<path fill="black" opacity="1.000000" stroke="none" 
	d="
M625.522339,487.478333 
	C633.280945,497.903473 641.080444,507.870789 648.228027,518.285461 
	C652.324646,524.254517 654.577515,531.168335 653.358398,538.672241 
	C651.459351,550.360718 644.882812,558.181641 633.376953,561.105408 
	C621.755249,564.058472 611.481262,561.173462 603.597107,551.884277 
	C595.299255,542.107910 587.438721,531.961182 579.178955,522.151550 
	C547.743347,484.817596 516.222412,447.555511 484.736450,410.263977 
	C478.106995,402.412140 471.639587,394.415527 464.779236,386.771332 
	C462.661530,384.411652 459.717712,382.349609 456.746460,381.303375 
	C452.259796,379.723450 449.643066,382.429626 451.346039,386.827850 
	C452.888397,390.811218 455.108765,394.635681 457.590454,398.132568 
	C465.492279,409.266815 473.583801,420.268890 481.737427,431.221222 
	C489.978729,442.291321 494.014832,454.451599 493.646057,468.433746 
	C492.767731,501.735229 492.447113,535.051208 491.856262,568.360535 
	C491.662628,579.278503 487.201965,589.030579 483.390350,598.982361 
	C461.049683,657.311707 438.845184,715.693237 416.468719,774.008850 
	C409.132172,793.128723 401.029205,811.961121 393.979095,831.182617 
	C385.628357,853.950073 364.653503,857.266479 346.989166,850.361267 
	C326.101105,842.195862 317.037079,823.659485 324.087952,800.622070 
	C329.585754,782.659058 336.737427,765.192383 343.391968,747.595093 
	C364.065887,692.925110 385.156616,638.409363 405.291351,583.542297 
	C408.568573,574.611755 408.698425,564.206848 408.767151,554.472717 
	C409.094177,508.152283 408.904358,461.828156 408.861481,415.505402 
	C408.859680,413.561066 408.489044,411.617035 407.047913,409.253052 
	C404.708588,413.175415 402.069458,416.952301 400.083069,421.045959 
	C392.449219,436.778320 385.146667,452.671875 377.470428,468.383118 
	C373.624207,476.255371 373.314453,484.149994 374.772278,492.676971 
	C379.544861,520.592529 383.942627,548.573547 388.223450,576.569336 
	C388.582825,578.919617 387.542755,581.918213 386.210205,584.017212 
	C380.599487,592.854980 372.562744,598.554688 362.216370,600.521301 
	C350.045502,602.834717 338.534943,595.778564 336.179901,583.552124 
	C332.086426,562.300781 328.672485,540.912354 325.305573,519.529175 
	C322.508881,501.767700 320.235046,483.924377 317.631165,466.131744 
	C316.831116,460.664795 317.476868,455.610474 320.204468,450.708008 
	C340.612213,414.028534 360.953522,377.312103 381.292114,340.594208 
	C385.649750,332.727264 390.091339,324.898590 394.165070,316.884918 
	C397.983582,309.373383 403.557770,304.025024 411.499725,301.236603 
	C429.463531,294.929504 447.373505,295.076965 465.331604,301.477325 
	C475.762604,305.195038 481.532898,313.933990 488.089355,321.828644 
	C533.851501,376.931335 579.562622,432.076447 625.522339,487.478333 
z"/>
<path fill="black" opacity="1.000000" stroke="none" 
	d="
M532.066040,675.884155 
	C548.536072,717.403320 564.889526,758.554688 581.192932,799.725769 
	C584.287170,807.539734 586.191101,815.591797 585.288818,824.105530 
	C583.350647,842.393311 571.047485,854.055420 552.647522,855.011902 
	C533.688293,855.997437 522.070190,849.530884 514.958923,831.761658 
	C507.791565,813.852234 502.064819,795.366150 495.710602,777.131409 
	C487.549622,753.711670 479.686462,730.182312 471.113403,706.914429 
	C466.603973,694.675415 466.592590,683.075684 471.353912,670.960815 
	C479.815826,649.429993 487.721863,627.681091 495.955719,606.059753 
	C497.064301,603.148804 498.725769,600.448303 500.728058,596.462280 
	C511.436035,623.592957 521.684021,649.558044 532.066040,675.884155 
z"/>
<path fill="black" opacity="1.000000" stroke="none" 
	d="
M405.357025,263.658539 
	C387.416321,247.817719 385.370087,221.616089 392.289124,205.066650 
	C401.223907,183.695755 418.377716,173.439667 440.973328,171.854233 
	C471.661072,169.701019 492.863037,194.872818 494.983704,220.255630 
	C497.003082,244.426529 486.820618,262.480225 466.312836,272.567780 
	C445.392792,282.858124 423.413391,279.718872 405.357025,263.658539 
z"/>
<path fill="black" opacity="1.000000" stroke="none" 
	d="
M686.078125,606.853516 
	C722.692810,670.765015 759.109070,734.367493 795.595581,797.929626 
	C801.730896,808.617859 808.479553,818.964661 814.330566,829.800903 
	C817.033447,834.806885 818.739624,840.510071 819.915405,846.103638 
	C820.388794,848.355957 818.725159,852.897827 817.162720,853.343567 
	C814.177795,854.195251 810.366028,853.392212 807.292847,852.230164 
	C805.416748,851.520813 803.986877,849.029114 802.849915,847.053894 
	C758.054749,769.232666 713.335571,691.367615 668.543945,613.544312 
	C663.477051,604.740723 657.896912,596.232117 652.847412,587.419006 
	C650.546509,583.403198 648.700745,579.071899 647.125610,574.711426 
	C645.738159,570.870728 646.096252,566.973267 649.893311,564.457764 
	C653.830322,561.849609 657.736267,562.878723 660.856384,565.879578 
	C663.584473,568.503479 666.188843,571.455200 668.086670,574.706421 
	C674.214417,585.204285 679.991211,595.907104 686.078125,606.853516 
z"/>
</svg>