<svg version="1.1" id="Layer_1" xmlns="http://www.w3.org/2000/svg" xmlns:xlink="http://www.w3.org/1999/xlink" x="0px" y="0px"
	 width="100%" viewBox="0 0 818 1030" enable-background="new 0 0 818 1030" xml:space="preserve">
<path fill="#FFC90E" opacity="1.000000" stroke="none" 
	d="
M400.333435,161.746246 
	C389.731873,163.238770 378.490387,162.984161 368.660889,166.584534 
	C347.661041,174.276413 327.843506,184.800598 309.563080,197.929184 
	C304.873047,201.297440 300.134430,204.598038 294.365875,208.673080 
	C293.446808,204.254929 292.887573,200.604370 291.888062,197.078644 
	C291.142517,194.448761 289.608673,192.047653 288.802765,189.428696 
	C284.154327,174.322754 279.225586,159.286652 275.167297,144.020721 
	C271.884094,131.670532 269.635864,119.041580 267.078125,106.505768 
	C266.653442,104.424240 266.994995,102.186371 267.213257,99.339569 
	C267.246246,95.779434 267.048523,92.900490 266.850769,90.021538 
	C266.891602,86.312683 266.932404,82.603828 266.999329,77.982437 
	C267.047577,73.035332 267.069763,69.000763 267.091919,64.966202 
	C267.392975,60.963886 268.176971,56.926540 267.889740,52.966900 
	C267.368469,45.781143 270.681427,40.307156 275.134979,35.479431 
	C285.839020,23.876060 299.484344,17.457415 314.664062,13.888256 
	C325.475372,11.346229 336.243500,8.620468 347.819916,5.956755 
	C349.196686,6.170073 349.808075,6.652553 350.368683,6.599443 
	C359.558502,5.728837 368.741943,4.790643 377.926819,3.867656 
	C383.821716,3.566133 389.721680,3.336089 395.608337,2.918289 
	C397.311401,2.797417 398.976227,2.137617 400.329285,1.362442 
	C401.388885,1.000000 402.777802,1.000000 404.369934,1.378881 
	C404.382019,4.001137 404.025513,6.244405 404.024048,8.487906 
	C403.992157,57.516129 403.988556,106.544380 404.027740,155.572601 
	C404.030060,158.486038 404.261505,161.295334 400.333435,161.746246 
z"/>
<path fill="#3F48CC" opacity="1.000000" stroke="none" 
	d="
M400.762756,161.784607 
	C404.261505,161.295334 404.030060,158.486038 404.027740,155.572601 
	C403.988556,106.544380 403.992157,57.516129 404.024048,8.487906 
	C404.025513,6.244405 404.382019,4.001137 404.786591,1.378881 
	C405.750000,1.000000 406.500000,1.000000 407.625000,0.999999 
	C409.134186,1.652733 410.245575,2.817631 411.406555,2.869380 
	C416.385101,3.091292 421.388428,2.785687 426.363922,3.040337 
	C437.068420,3.588202 447.828003,3.839304 458.440186,5.191787 
	C469.111450,6.551805 479.872498,8.287882 490.153992,11.341516 
	C501.982544,14.854646 513.648560,19.330374 524.754517,24.693884 
	C530.702393,27.566374 535.751709,32.478279 537.773987,39.933521 
	C539.373657,45.831009 540.822449,51.376694 540.284790,57.627857 
	C539.776794,63.533741 541.260559,69.602364 540.840942,75.526657 
	C540.337219,82.639450 538.785339,89.681694 537.613159,96.742172 
	C536.810913,101.574104 536.073303,106.429321 534.968872,111.195862 
	C532.824158,120.452553 530.323669,129.627136 528.201355,138.888611 
	C526.912231,144.513901 526.463562,150.351562 524.924927,155.896103 
	C520.742126,170.968765 516.180054,185.936157 511.451630,202.022781 
	C505.332153,197.975281 499.849884,194.278961 494.294769,190.695618 
	C489.160156,187.383514 484.067078,183.978516 478.740021,181.000153 
	C471.466705,176.933640 464.109375,172.970963 456.545380,169.491318 
	C453.056854,167.886490 448.835022,167.937531 445.222076,166.528809 
	C437.163818,163.386795 428.777557,162.409897 420.284027,162.042709 
	C413.928741,161.767975 407.556702,161.882019 400.762756,161.784607 
z"/>
<path fill="#FFF200" opacity="1.000000" stroke="none" 
	d="
M700.927307,807.094177 
	C708.967957,813.482666 716.922546,819.983582 725.075745,826.225037 
	C731.930054,831.472290 738.945984,836.516846 746.015381,841.472839 
	C756.480774,848.809509 767.125916,855.890625 777.561462,863.268799 
	C784.638428,868.272339 791.356628,873.788391 798.495544,878.696777 
	C801.792847,880.963745 805.788208,882.189087 809.320984,884.149902 
	C811.434875,885.323120 813.266357,887.005127 815.615601,888.748535 
	C814.269836,890.424438 812.979797,892.796448 811.029968,894.329407 
	C801.598022,901.744751 791.911438,908.835999 782.475342,916.246155 
	C777.810730,919.909302 773.492310,924.013184 769.017212,927.917664 
	C764.811707,931.586792 760.677307,935.341736 756.380493,938.900513 
	C752.078491,942.463562 747.600098,945.812927 743.224060,949.287415 
	C735.800537,955.181519 728.333557,961.023315 721.002258,967.030334 
	C713.572327,973.118225 706.390686,979.511597 698.907166,985.531006 
	C690.101379,992.613831 680.970947,999.294678 672.204041,1006.423767 
	C666.087402,1011.397705 660.356384,1016.844727 654.429993,1022.054138 
	C652.324341,1023.905029 650.391479,1026.247192 647.925110,1027.292114 
	C646.200745,1028.022705 644.453430,1030.248169 641.298584,1027.370483 
	C636.206604,1022.725830 629.499451,1019.902283 623.766724,1015.891846 
	C620.058960,1013.298096 616.862976,1009.970093 613.453735,1006.952942 
	C607.501282,1001.684998 601.417236,996.554565 595.653687,991.086792 
	C589.087463,984.857483 582.817017,978.316711 576.404602,971.924805 
	C575.300598,970.824280 574.130005,969.790710 572.994507,968.017212 
	C568.054993,962.248047 563.111023,957.187927 558.167114,952.127869 
	C550.981384,944.161011 543.836853,936.156433 536.589966,928.245667 
	C533.625122,925.009094 530.255615,922.134094 527.386658,918.820679 
	C517.696350,907.628540 508.106689,896.348328 498.557556,885.035156 
	C490.115631,875.033691 481.683228,865.021423 473.421478,854.871643 
	C463.912170,843.189270 454.417511,831.487000 445.240234,819.544678 
	C434.352386,805.376221 423.725586,791.004272 413.141754,776.605774 
	C403.335541,763.265076 393.633392,749.844910 384.077393,736.324097 
	C376.883911,726.145996 369.894104,715.819763 362.993835,705.439575 
	C353.950806,691.836182 344.843811,678.265137 336.210297,664.402466 
	C327.392670,650.244202 319.073425,635.774170 310.611755,621.396057 
	C301.534943,605.972839 292.295288,590.637451 283.594788,575.003235 
	C275.920898,561.213684 268.607300,547.204834 261.662292,533.034180 
	C255.370728,520.196777 249.778976,507.015991 243.903214,493.975555 
	C240.526443,486.481323 237.096146,479.008575 233.879532,471.445557 
	C231.069733,464.839081 228.321442,458.192505 225.908905,451.434113 
	C221.755936,439.800079 217.764069,428.104645 213.946320,416.356415 
	C212.005463,410.383881 210.619446,404.232361 208.932129,398.175812 
	C206.588699,389.764313 204.309555,381.332458 201.801987,372.969604 
	C197.687973,359.249084 194.811035,345.329193 193.949722,330.993347 
	C193.547653,324.300934 192.653610,317.638123 192.080750,310.135559 
	C192.452286,307.064850 192.912460,304.824585 192.961639,302.575287 
	C193.078323,297.239594 193.129822,291.895264 192.948868,286.563202 
	C192.850723,283.671173 192.222534,280.797119 191.833435,277.914978 
	C193.062485,263.015472 194.657761,248.214706 199.495346,233.903885 
	C203.305267,222.633179 206.419724,211.129318 210.006546,199.780685 
	C213.894775,187.478409 217.967697,175.234421 221.969131,162.967987 
	C224.303619,155.811615 226.548508,148.623642 229.024155,141.516220 
	C233.216263,129.480789 237.469330,117.464882 241.864471,105.502388 
	C246.127075,93.900688 250.523056,82.345833 255.065170,70.851295 
	C255.749756,69.118835 257.548737,67.826744 258.919189,67.122719 
	C259.057404,76.278458 259.108704,84.642426 259.159973,93.006386 
	C260.312378,99.129158 261.473511,105.250313 262.614868,111.375145 
	C263.881683,118.173286 264.875397,125.034180 266.441803,131.762100 
	C269.455811,144.707718 272.533661,157.649612 276.073151,170.458160 
	C278.810913,180.365448 282.127350,190.124176 285.482147,199.846970 
	C290.675720,214.899017 295.945984,229.929657 301.518890,244.844116 
	C305.556396,255.649399 310.108490,266.263428 314.483459,276.941284 
	C318.744629,287.341400 322.882629,297.798004 327.419861,308.077454 
	C332.838135,320.352905 338.497498,332.526520 344.285675,344.632782 
	C349.736755,356.033966 355.482697,367.294312 361.115417,378.608459 
	C363.867737,384.136841 366.617462,389.667145 369.440094,395.159729 
	C373.590057,403.235138 377.601715,411.391235 382.045654,419.303253 
	C386.871460,427.895111 392.127808,436.245026 397.190918,444.703735 
	C401.732422,452.291077 406.291443,459.868134 410.797516,467.476471 
	C416.404144,476.943054 421.839355,486.513641 427.583496,495.895508 
	C432.317902,503.628204 437.298798,511.215698 442.355530,518.743225 
	C445.376801,523.240784 448.925964,527.384766 451.925476,531.895447 
	C455.149811,536.744141 457.834503,541.952759 461.077484,546.787781 
	C464.125183,551.331604 467.726440,555.501038 470.845428,560.000732 
	C475.155396,566.218567 479.111633,572.683228 483.472107,578.863892 
	C486.112366,582.606262 489.272491,585.978210 492.125641,589.574829 
	C500.095001,599.620789 507.939850,609.766968 516.003601,619.736206 
	C521.121033,626.062805 526.643860,632.060608 531.795898,638.360352 
	C536.395142,643.984253 540.656494,649.883728 545.225342,655.533447 
	C547.256775,658.045471 549.797607,660.140320 551.897034,662.603638 
	C556.502930,668.007996 560.916321,673.576782 565.543152,678.962708 
	C566.681519,680.287842 568.560059,680.974121 569.710999,682.292297 
	C572.690308,685.704407 575.453552,689.305054 578.628906,693.332581 
	C580.071716,695.195923 581.101318,696.641541 582.320862,697.903503 
	C587.166748,702.917908 592.071838,707.875000 596.955017,712.853333 
	C602.138916,717.906982 607.340576,722.942688 612.500671,728.020447 
	C616.098328,731.560547 619.639221,735.158264 623.745972,739.125488 
	C629.146667,744.032654 634.006836,748.544678 638.867004,753.056641 
	C646.200073,759.486694 653.533142,765.916748 660.942017,773.017700 
	C666.651855,778.490784 672.285828,783.292969 677.919739,788.095215 
	C680.250732,789.872375 682.581726,791.649536 685.052490,794.085083 
	C690.437317,798.860291 695.682312,802.977234 700.927307,807.094177 
z"/>
<path fill="#00A2E8" opacity="1.000000" stroke="none" 
	d="
M217.141922,999.961487 
	C209.620987,1007.142944 205.999191,1007.519775 196.719559,1003.402344 
	C187.522110,999.321472 178.027130,995.916565 168.762024,991.981201 
	C161.570938,988.926758 154.608917,985.329163 147.396027,982.331543 
	C143.551758,980.733887 139.240005,980.254761 135.408218,978.634644 
	C129.290070,976.047729 123.522888,972.620361 117.377960,970.109680 
	C107.810265,966.200500 98.021187,962.837158 88.379883,959.103088 
	C78.217934,955.167419 68.095528,951.126831 57.999847,947.023804 
	C48.404869,943.124268 38.903965,938.992065 29.291260,935.137817 
	C22.244093,932.312073 15.110369,929.694275 7.962754,927.130066 
	C3.500103,925.529114 2.861107,923.421326 6.354219,920.174438 
	C24.258211,903.532654 42.219391,886.952393 60.150539,870.339844 
	C65.242416,865.622375 70.300369,860.868408 76.031754,856.055115 
	C77.384239,855.603210 78.217148,855.366089 78.753464,854.831482 
	C95.620789,838.016113 112.471840,821.184387 129.263489,804.293579 
	C130.075424,803.476929 130.325668,802.101990 130.837463,800.987000 
	C134.768906,797.235168 138.873001,793.645874 142.592041,789.694153 
	C148.442032,783.478271 154.054916,777.038147 159.726227,770.655762 
	C164.203171,765.617493 168.572952,760.483643 173.069473,755.463074 
	C179.517822,748.263306 186.178986,741.249695 192.498993,733.940247 
	C206.243805,718.043274 219.905609,702.073059 233.458374,686.012146 
	C244.978561,672.360046 256.424103,658.640564 267.660645,644.755066 
	C274.658966,636.106934 281.197693,627.087219 287.962616,618.249512 
	C290.341553,615.141663 292.779846,612.079285 295.914490,608.071106 
	C298.231781,612.620361 300.019470,616.532776 302.169434,620.234863 
	C304.225494,623.775208 306.728455,627.052673 308.912842,630.522583 
	C316.268005,642.206177 323.536835,653.944214 330.900146,665.622681 
	C337.151154,675.536865 343.558960,685.352783 349.752686,695.302246 
	C352.496490,699.709778 354.582306,704.545044 357.501495,708.821106 
	C362.071960,715.516052 367.181091,721.840271 371.910217,728.430481 
	C380.974731,741.062317 389.819702,753.853394 399.011353,766.390991 
	C401.413300,769.667297 399.101410,771.678467 397.924438,773.917297 
	C396.421021,776.777161 394.361176,779.346619 392.518311,782.025513 
	C377.937469,803.220764 363.783508,824.726868 348.650818,845.520691 
	C331.931976,868.494019 314.424103,890.898132 297.028748,913.371277 
	C291.054169,921.089844 284.349060,928.240417 278.037628,935.701172 
	C267.781921,947.824341 257.713684,960.109619 247.285706,972.081970 
	C242.594406,977.468079 237.226166,982.264587 231.653214,987.647156 
	C226.474869,991.964294 221.808395,995.962891 217.141922,999.961487 
z"/>
<path fill="#00A2E8" opacity="1.000000" stroke="none" 
	d="
M603.889648,296.055817 
	C603.606140,297.452148 603.322571,298.848450 603.013062,301.072052 
	C603.066345,304.641510 603.145508,307.383698 603.224670,310.125885 
	C600.299805,327.114807 597.426331,344.112854 594.420105,361.087372 
	C593.457764,366.521027 592.457397,371.983734 590.917358,377.270874 
	C588.642151,385.081818 585.720947,392.702942 583.363403,400.492218 
	C581.959106,405.131989 581.481140,410.066162 579.923950,414.642487 
	C577.254944,422.486389 573.926270,430.103668 571.152527,437.914856 
	C569.647400,442.153320 569.033020,446.713562 567.465942,450.923645 
	C562.791992,463.480743 558.035278,476.014221 552.954224,488.410706 
	C547.517639,501.674652 541.880188,514.865234 535.957764,527.918762 
	C528.606323,544.121948 520.948730,560.188232 513.263794,576.237305 
	C510.430847,582.153625 507.143982,587.852661 503.648712,594.432922 
	C499.341888,588.955261 495.178680,584.062805 491.458893,578.853638 
	C480.294067,563.218750 469.164429,547.554871 458.301270,531.710144 
	C452.874969,523.795410 448.138062,515.411194 442.927063,507.344238 
	C440.933655,504.258301 438.240173,501.618652 436.302582,498.503906 
	C432.983612,493.168640 430.065765,487.585693 426.869141,482.171844 
	C424.616150,478.356171 422.085663,474.703766 419.847717,470.879791 
	C416.054749,464.398743 412.419647,457.825317 408.639954,451.336273 
	C408.272949,450.706177 407.179932,450.526184 406.728943,449.912964 
	C404.998260,447.559479 403.922211,445.609039 405.974396,442.280304 
	C412.633484,431.478943 418.778687,420.354187 424.922760,409.243958 
	C430.359894,399.412109 435.614746,389.476562 440.791931,379.504700 
	C444.663208,372.048218 448.301636,364.470306 452.010315,356.930023 
	C458.324341,344.092743 464.856415,331.355194 470.844269,318.367065 
	C477.236511,304.501740 483.407257,290.516968 489.122131,276.361267 
	C495.769958,259.894623 501.778351,243.170578 508.144501,226.589035 
	C510.966553,219.238602 514.172119,212.031204 516.846619,204.629868 
	C518.492554,200.074890 519.419373,195.263489 520.747986,190.589630 
	C523.242310,181.814850 525.685730,173.023178 528.361023,164.303192 
	C530.028381,158.868637 532.446716,153.646530 533.860901,148.157227 
	C535.312439,142.522903 535.780884,136.643051 536.993774,130.937439 
	C538.273682,124.915955 540.051453,119.000984 541.363892,112.985420 
	C542.096680,109.626930 542.325745,106.158546 543.283081,102.184753 
	C544.576599,94.050941 545.368774,86.472061 546.161011,78.893188 
	C546.423401,75.557159 546.685852,72.221138 546.946045,67.990494 
	C546.901184,64.066772 546.858643,61.037666 546.816101,58.008564 
	C546.830750,55.183285 546.845337,52.358009 546.432251,48.937065 
	C546.076660,47.176697 546.148804,46.011997 546.227783,44.736851 
	C547.889160,47.984436 549.440918,51.017818 550.992737,54.051201 
	C550.992737,54.051197 550.984497,53.988079 551.005859,54.315098 
	C551.329651,55.126247 551.632141,55.610374 551.934631,56.094498 
	C553.276062,59.742615 554.823242,63.330143 555.918823,67.050667 
	C558.748901,76.661400 561.179749,86.392761 564.143921,95.960114 
	C567.359863,106.340111 571.236084,116.516998 574.394043,126.913185 
	C578.620850,140.828506 582.449951,154.864960 586.419434,168.858047 
	C589.199402,178.658112 592.142822,188.418976 594.614929,198.297028 
	C596.728760,206.743500 598.450134,215.299698 600.027954,223.865768 
	C601.872925,233.881851 603.374084,243.961258 605.059021,254.861115 
	C605.049438,264.769165 605.005188,273.829315 604.585938,283.113861 
	C604.103760,287.577454 603.996704,291.816650 603.889648,296.055817 
z"/>

</svg>