<svg version="1.1" id="Layer_1" xmlns="http://www.w3.org/2000/svg" xmlns:xlink="http://www.w3.org/1999/xlink" x="0px" y="0px"
	 width="100%" viewBox="0 0 1776 1775" enable-background="new 0 0 1776 1775" xml:space="preserve">
<path fill="black" opacity="1.000000" stroke="none" 
	d="
M1024.374023,413.619934 
	C1039.288330,421.390991 1054.721191,427.745758 1068.191528,436.967194 
	C1079.566040,444.753937 1089.032104,455.513702 1098.677734,465.593933 
	C1110.740112,478.199738 1123.067749,490.738129 1133.590454,504.589752 
	C1152.431030,529.390991 1161.276978,558.219849 1162.777100,589.176758 
	C1163.944946,613.279419 1161.453735,637.052246 1153.934448,660.127869 
	C1146.892090,681.739624 1132.639893,696.746948 1111.663452,705.159546 
	C1092.996582,712.645996 1074.281738,720.071411 1055.292114,726.672119 
	C1044.916504,730.278503 1040.922974,735.607361 1041.558716,747.151184 
	C1042.283325,760.311218 1040.636597,773.772156 1038.590088,786.879028 
	C1034.285156,814.451538 1017.996887,832.491516 991.239075,839.700134 
	C971.058411,845.136780 950.308655,848.432678 929.874451,852.962402 
	C891.983276,861.362000 854.409546,857.594299 816.901428,850.397095 
	C802.334412,847.601929 787.719421,845.592590 771.607178,846.721863 
	C774.404480,852.403503 776.827332,857.532227 779.431091,862.567322 
	C784.005920,871.414246 789.523376,879.884827 793.065674,889.119202 
	C795.869263,896.427734 796.304382,904.644592 797.794128,912.457581 
	C798.370056,915.477844 796.664490,916.405579 794.068298,917.148376 
	C781.761475,920.669556 769.537964,924.483459 757.215820,927.947937 
	C754.114441,928.819946 753.308167,930.341858 752.849365,933.433838 
	C750.901062,946.564209 749.247314,959.811218 746.084900,972.671082 
	C741.566956,991.042786 729.019653,1002.635071 711.569641,1009.224670 
	C669.225098,1025.214844 630.877991,1017.612122 597.167542,988.278076 
	C581.509888,974.653137 567.707275,958.912415 552.815125,944.385681 
	C544.359558,936.137512 535.768860,927.946167 526.565674,920.569275 
	C517.484436,913.289856 514.969971,904.776428 517.440918,893.688293 
	C520.111755,881.703308 521.893250,869.520142 524.055664,857.462280 
	C493.124359,843.110901 483.156891,814.962830 476.157776,785.328735 
	C466.851532,745.926086 469.055023,706.968018 480.669678,668.024109 
	C496.904663,613.588318 518.577576,561.848145 551.241760,515.132202 
	C588.713562,461.540436 636.233948,419.959320 697.044556,394.547485 
	C732.081970,379.905853 768.669067,371.729279 806.548096,370.228546 
	C829.818909,369.306610 853.212769,368.842896 876.443481,370.126221 
	C919.500366,372.504791 960.992981,382.006134 999.722412,401.804504 
	C1007.722046,405.893951 1015.929871,409.576202 1024.374023,413.619934 
z"/>
<path fill="black" opacity="1.000000" stroke="none" 
	d="
M355.673462,699.204895 
	C355.628265,653.206055 361.370361,608.441711 374.105469,564.664124 
	C392.308594,502.090179 423.169342,446.599243 467.594269,398.808289 
	C521.662231,340.643677 587.488403,301.256439 662.692261,276.848999 
	C725.170654,256.571655 789.318054,248.477478 854.731262,252.271896 
	C968.342651,258.862091 1070.470581,296.183563 1158.899170,368.829926 
	C1201.666382,403.964172 1236.345093,446.112579 1265.879028,492.687744 
	C1284.637817,522.270447 1301.229004,552.909790 1312.380249,586.298767 
	C1324.111572,621.424438 1326.188110,657.178589 1321.544434,693.778320 
	C1319.522827,709.712097 1318.558350,726.048035 1319.623779,742.034058 
	C1320.821045,759.996277 1329.739746,775.865051 1340.228882,790.146057 
	C1356.476685,812.267700 1374.149048,833.341614 1390.451904,855.424988 
	C1399.504028,867.686768 1408.228638,880.489746 1414.955566,894.108521 
	C1430.519043,925.617676 1422.276001,949.005554 1390.571533,964.401428 
	C1377.781250,970.612488 1363.970703,974.727478 1350.604492,979.743469 
	C1347.982544,980.727417 1345.269287,981.467957 1341.718872,982.601440 
	C1345.006714,996.876770 1348.172363,1010.934265 1351.510864,1024.950439 
	C1352.703125,1029.956055 1354.300537,1034.865845 1355.736694,1039.812500 
	C1357.795044,1046.901855 1357.010864,1053.635864 1353.299194,1060.029419 
	C1352.129517,1062.044067 1351.182129,1064.210327 1349.835205,1066.094238 
	C1347.598755,1069.223022 1347.238647,1071.612061 1349.772827,1075.271729 
	C1355.913452,1084.139648 1354.441772,1093.957275 1351.453735,1103.615845 
	C1350.373047,1107.108643 1349.322388,1110.636597 1347.886108,1113.989258 
	C1340.239502,1131.838989 1338.205811,1150.494629 1339.269043,1169.708252 
	C1340.373169,1189.665283 1340.834961,1209.661865 1342.170776,1229.601440 
	C1344.191040,1259.760010 1321.764771,1277.818359 1301.800537,1284.032715 
	C1285.227539,1289.191406 1268.074097,1289.594482 1251.001831,1291.049805 
	C1231.628296,1292.701416 1212.095337,1293.844482 1193.025391,1297.350220 
	C1168.730225,1301.816772 1150.871704,1315.900879 1141.985474,1339.560669 
	C1139.934937,1345.020264 1139.315430,1351.277588 1139.270020,1357.177368 
	C1139.165894,1370.715454 1129.971191,1378.187988 1119.358521,1383.457520 
	C1115.576538,1385.335327 1112.294189,1383.062500 1110.213745,1379.514893 
	C1105.468262,1371.422607 1102.968750,1362.562744 1103.153931,1353.295776 
	C1103.703613,1325.796387 1113.542114,1302.293579 1134.927124,1284.433594 
	C1150.159180,1271.712158 1168.380371,1265.011963 1187.660767,1262.229370 
	C1212.010864,1258.715088 1236.593628,1256.842896 1261.034668,1253.915894 
	C1270.581055,1252.772583 1280.183594,1251.330322 1289.462158,1248.889648 
	C1305.551392,1244.657349 1309.132935,1240.633667 1309.904541,1224.022461 
	C1310.643799,1208.106689 1310.474121,1192.084839 1309.583496,1176.172363 
	C1308.271973,1152.738525 1308.244141,1129.510254 1315.624023,1106.946777 
	C1318.848633,1097.087524 1315.272339,1089.535767 1309.307251,1082.179199 
	C1299.772095,1070.419556 1299.835083,1069.769897 1309.429810,1057.741211 
	C1311.396851,1055.275391 1313.480591,1052.800781 1315.917236,1050.834106 
	C1320.003296,1047.536255 1320.586670,1043.515015 1319.613403,1038.753052 
	C1316.217407,1022.138672 1312.819824,1005.523499 1309.633301,988.868469 
	C1308.887817,984.972412 1308.802856,980.921936 1308.704468,976.935364 
	C1308.429199,965.775574 1314.003052,958.397705 1323.966309,954.026123 
	C1340.552490,946.748657 1357.241333,939.697510 1373.716187,932.176758 
	C1384.762207,927.134277 1385.714233,924.052002 1382.302979,912.152893 
	C1375.906372,889.840698 1361.975830,872.473938 1346.475708,855.902344 
	C1333.757690,842.304993 1320.959961,828.640808 1309.679565,813.874084 
	C1293.912354,793.233459 1287.132324,768.937317 1284.975220,743.226501 
	C1283.066650,720.476135 1285.208984,697.992493 1288.795288,675.568787 
	C1292.550049,652.093079 1289.766846,629.126831 1283.377319,606.435364 
	C1272.824829,568.960022 1254.657349,535.200745 1232.272949,503.691895 
	C1181.292480,431.930481 1116.704834,375.697388 1038.204346,335.683472 
	C999.222351,315.813232 957.993652,302.835846 914.756531,296.020569 
	C871.993347,289.280029 829.054443,286.245911 785.811096,289.112610 
	C710.835632,294.082977 640.331909,313.843292 576.457458,354.251648 
	C506.307953,398.629761 455.874451,459.637695 424.791046,536.643005 
	C398.956207,600.645508 390.394012,667.359436 394.321075,735.815674 
	C396.948914,781.623230 404.024719,826.774231 418.949097,870.405762 
	C431.798096,907.969971 452.033844,941.473755 475.590912,973.130859 
	C491.487244,994.493164 508.057251,1015.380188 523.308838,1037.191040 
	C557.445801,1086.008911 578.922485,1139.845703 586.171143,1199.265137 
	C591.987793,1246.946289 588.033203,1293.976318 578.602112,1340.777832 
	C575.726929,1355.045654 567.898926,1366.454224 557.740967,1376.399414 
	C552.331360,1381.695679 541.024414,1378.232910 539.390381,1370.275391 
	C538.044128,1363.718994 537.818298,1356.643921 538.635681,1349.987671 
	C540.844543,1332.001221 544.361877,1314.173218 546.488098,1296.179321 
	C553.123413,1240.024048 551.933228,1184.478027 532.014709,1130.603027 
	C519.536926,1096.853638 500.233704,1067.019043 479.442963,1037.963501 
	C460.459991,1011.434448 441.093445,985.121765 423.396881,957.743530 
	C395.203674,914.125977 377.064758,866.230225 366.999603,815.285828 
	C359.457581,777.112000 355.602295,738.576355 355.673462,699.204895 
z"/>
</svg>