<svg version="1.1" id="Layer_1" xmlns="http://www.w3.org/2000/svg" xmlns:xlink="http://www.w3.org/1999/xlink" x="0px" y="0px"
	 width="100%" viewBox="0 0 1063 1059" enable-background="new 0 0 1063 1059" xml:space="preserve">
<path fill="black" opacity="1.000000" stroke="none" 
	d="
M271.954163,512.005493 
	C279.636902,543.583557 287.248779,574.752502 294.851746,605.923523 
	C299.775208,626.109253 304.687958,646.297485 309.593292,666.487549 
	C309.783569,667.270569 309.846802,668.084534 310.068817,669.534241 
	C308.348602,668.767029 306.994385,668.365295 305.859955,667.626282 
	C292.612183,658.994995 279.348114,650.386353 266.233154,641.556641 
	C264.485657,640.380127 262.823883,638.190613 262.326904,636.173462 
	C252.821152,597.590515 243.498520,558.962463 234.124908,520.346863 
	C233.695709,518.578735 233.143860,516.840332 232.281616,513.786255 
	C228.568985,518.223816 225.632889,522.350952 222.072006,525.840576 
	C217.084808,530.727966 216.604462,535.865173 218.244949,542.508972 
	C223.784271,564.942566 228.683151,587.534607 233.772568,610.078308 
	C234.040207,611.263855 233.807068,612.562439 233.807068,614.901978 
	C231.754105,613.217102 230.356308,612.185059 229.088547,611.012451 
	C205.261002,588.972534 184.358795,564.436646 166.075012,537.618103 
	C163.772064,534.240173 164.065033,532.064087 166.238663,528.877808 
	C216.762970,454.814667 284.335022,402.270599 367.491028,369.486115 
	C405.932800,354.330322 445.839783,345.044342 486.964478,341.000153 
	C487.778076,340.920135 488.582367,340.746033 489.926117,340.529663 
	C483.637573,314.569519 477.396729,288.806274 471.049988,262.605865 
	C484.275421,259.383301 497.144318,256.247620 510.580658,252.973679 
	C513.127441,263.337158 515.625549,273.445953 518.094421,283.561859 
	C522.075806,299.874908 526.217285,316.152527 529.882629,332.536499 
	C530.803345,336.652252 532.610413,337.651672 536.489807,337.997040 
	C561.020996,340.181000 585.727417,341.394470 610.001099,345.273773 
	C666.265259,354.265656 718.880005,373.881378 767.635559,403.519745 
	C820.345520,435.562012 864.299805,476.867737 899.123657,527.869934 
	C901.887085,531.917114 902.019775,534.589966 899.166748,538.731201 
	C844.256897,618.434021 770.427429,672.983765 679.101746,704.041260 
	C662.145142,709.807678 644.507996,713.572571 627.186707,718.267700 
	C626.244995,718.522888 625.319275,718.837341 624.059998,719.224487 
	C631.121216,748.294067 638.128479,777.141663 645.276794,806.569946 
	C631.988708,809.797729 619.009766,812.950439 605.664185,816.192139 
	C592.458740,761.926636 579.379333,708.179443 566.303101,654.444885 
	C554.887939,656.846069 543.761353,659.186584 531.783447,661.706177 
	C536.983459,683.262451 542.286438,705.245605 547.616821,727.342163 
	C534.634583,727.342163 522.176025,727.431885 509.724823,727.171326 
	C508.731995,727.150513 507.268738,724.838928 506.902649,723.372620 
	C501.828400,703.047241 496.813599,682.705566 492.026672,662.311035 
	C491.027618,658.054749 489.132629,655.853027 484.892456,654.062073 
	C475.287537,650.005249 466.125732,644.893982 456.817596,640.145020 
	C455.228241,639.334106 453.806793,638.194092 451.157837,636.448242 
	C458.359894,666.145020 465.272919,694.650024 472.354401,723.849487 
	C469.598907,723.507690 467.376526,723.336121 465.193878,722.943604 
	C454.889038,721.089783 444.562256,719.328552 434.329285,717.133484 
	C432.611237,716.764893 430.375031,714.656189 429.960327,712.963867 
	C410.532257,633.681824 391.286835,554.354980 372.001129,475.037964 
	C367.528137,456.641754 362.986145,438.262329 358.249146,418.950592 
	C352.026978,422.134583 346.171265,425.031281 340.413513,428.111053 
	C336.312805,430.304474 330.465790,431.867004 328.851013,435.323944 
	C327.276581,438.694489 329.914307,444.157074 331.002197,448.628296 
	C350.851227,530.207397 370.748657,611.774780 390.620331,693.348450 
	C391.594147,697.345825 392.427002,701.377625 393.521027,706.267273 
	C389.218475,704.911194 385.616302,703.907898 382.109192,702.641479 
	C375.851807,700.382019 369.810303,697.306885 363.392517,695.757935 
	C352.433105,693.112915 348.372803,686.226013 345.909668,675.581299 
	C334.177521,624.880066 321.528351,574.391296 309.238678,523.818787 
	C304.371246,503.789124 299.594025,483.737488 294.761810,463.699188 
	C294.340942,461.953979 293.816284,460.233795 293.045959,457.433685 
	C283.620789,465.263031 274.759857,472.452087 266.187012,479.969635 
	C265.154480,480.875031 265.185242,483.669952 265.570099,485.400757 
	C267.519348,494.167114 269.748444,502.871216 271.954163,512.005493 
M690.935425,411.492523 
	C687.149048,410.211914 683.362610,408.931305 679.343750,407.572083 
	C738.744995,486.454834 743.845886,568.023987 694.849426,653.212402 
	C695.604797,652.993347 696.256287,652.882568 696.842041,652.623352 
	C755.944946,626.476379 806.045227,588.643188 846.252991,537.856750 
	C849.109497,534.248840 848.959717,532.173279 846.174927,528.674622 
	C804.640076,476.492859 752.960938,437.799011 690.935425,411.492523 
M626.935425,477.577332 
	C638.164307,495.650330 644.253174,515.412476 644.769653,536.586487 
	C645.609558,571.023193 634.074158,600.971375 609.605652,625.360291 
	C604.517212,630.432129 602.753540,634.569092 604.909363,641.537598 
	C608.312744,652.538330 610.592224,663.886780 613.388489,675.254883 
	C666.466492,642.428894 702.603943,569.140076 678.992676,492.577423 
	C667.032898,453.796265 643.175171,423.812164 608.695923,402.493561 
	C588.388611,389.937500 566.331909,382.231476 541.943359,380.005981 
	C542.196655,381.773682 542.255737,382.735352 542.478455,383.657501 
	C545.286499,395.284851 548.297913,406.867493 550.835632,418.553131 
	C551.612122,422.128906 553.090576,423.865143 556.599792,424.838379 
	C586.625000,433.165253 609.772522,450.817871 626.935425,477.577332 
M405.498352,448.990692 
	C408.699371,462.046967 411.900421,475.103271 414.838196,487.085724 
	C423.084198,476.505463 431.491302,465.878662 439.634277,455.053192 
	C440.575897,453.801361 440.515076,451.341003 440.128082,449.618713 
	C437.799713,439.256622 435.278564,428.937012 432.746368,418.621765 
	C430.748047,410.481476 428.641083,402.367828 426.458099,393.751892 
	C415.447968,397.222351 405.102081,400.483429 394.599548,403.793884 
	C398.287079,419.186890 401.762787,433.695618 405.498352,448.990692 
M469.586029,406.001251 
	C471.505676,414.023285 473.425323,422.045319 475.286163,429.821503 
	C486.781219,426.629944 497.854584,423.555450 509.323944,420.371033 
	C506.443787,408.315002 503.644623,396.218933 500.527496,384.205353 
	C500.251526,383.141785 497.853607,381.878876 496.523529,381.965881 
	C490.077789,382.387573 483.653778,383.185455 477.234863,383.956787 
	C473.184387,384.443573 469.156494,385.118103 464.650909,385.776764 
	C466.297211,392.708466 467.784302,398.969635 469.586029,406.001251 
z"/>
</svg>