<svg version="1.1" id="Layer_1" xmlns="http://www.w3.org/2000/svg" xmlns:xlink="http://www.w3.org/1999/xlink" x="0px" y="0px"
	 width="100%" viewBox="0 0 844 854" enable-background="new 0 0 844 854" xml:space="preserve">
<path fill="black" opacity="1.000000" stroke="none" 
	d="
M388.079041,408.488037 
	C388.045715,407.579315 388.097504,407.113037 388.071228,406.300964 
	C387.963654,379.271790 387.934082,352.588348 387.779114,325.450806 
	C387.538361,321.279938 387.423035,317.563171 387.192261,313.444702 
	C387.076874,313.042969 387.050079,313.031494 387.182800,312.922852 
	C387.405792,312.456360 387.319366,312.157135 387.056335,311.916565 
	C387.056335,310.430817 387.056335,308.945068 387.056335,306.490967 
	C370.231750,306.490967 353.645416,306.490967 336.601990,306.536743 
	C324.861786,305.706757 317.644470,295.751801 320.641357,283.904846 
	C321.984131,278.596710 324.685760,273.300995 327.948730,268.866394 
	C343.229279,248.099258 358.860626,227.588623 374.493530,207.083084 
	C380.701721,198.939804 387.238190,191.046799 394.109070,182.617645 
	C402.955475,175.528091 414.683075,177.755173 420.276672,183.239639 
	C426.935364,189.768402 428.052216,199.952591 422.499725,208.895035 
	C419.179535,214.242249 415.585052,219.438797 411.824982,224.487991 
	C407.660339,230.080505 403.166290,235.427750 398.815674,240.881790 
	C391.690277,248.479599 385.246338,256.546478 380.187714,266.936584 
	C391.873535,266.936584 402.459351,266.921539 413.045105,266.939880 
	C432.002716,266.972687 450.992615,266.354126 469.908691,267.263153 
	C488.035004,268.134155 504.521332,273.824310 516.017517,289.282166 
	C524.650269,300.889832 527.583313,314.445099 527.672546,328.339203 
	C527.885193,361.449982 527.288574,394.566650 526.901672,427.679535 
	C526.865295,430.800507 526.252625,433.976349 525.476562,437.016754 
	C521.431641,452.863678 504.120087,457.218048 493.470856,446.007355 
	C488.232880,438.689697 486.985168,430.595428 487.070496,422.121796 
	C487.410889,388.315186 487.720001,354.508209 487.996094,320.701050 
	C488.017670,318.055908 488.467529,314.990662 487.323730,312.874512 
	C486.093170,310.597992 483.217987,309.210358 481.060425,307.434906 
	C480.018677,309.300873 478.209778,311.107666 478.060516,313.042450 
	C477.139648,324.979614 475.989075,336.947266 476.022430,348.901733 
	C476.202026,413.191254 476.719757,477.479797 477.093719,541.768860 
	C477.261322,570.582092 477.603882,599.397949 477.334290,628.207642 
	C477.265503,635.557922 475.165802,642.889282 473.750824,650.843140 
	C472.623077,652.937988 471.743683,654.418884 470.864319,655.899780 
	C470.864288,655.899780 470.938019,655.956116 470.665405,655.982910 
	C470.185120,656.311584 469.977478,656.613464 469.769836,656.915405 
	C469.449036,656.928284 469.194183,657.064575 468.930054,657.534912 
	C457.003693,663.445068 447.862427,661.640381 441.329376,652.156982 
	C435.465759,638.193481 437.255676,623.771851 437.305511,609.520508 
	C437.455170,566.720581 437.747375,523.920837 437.778351,481.120911 
	C437.783112,474.540558 436.702881,467.959412 436.106232,461.171692 
	C433.481720,461.171692 431.560547,461.171692 428.758606,461.171692 
	C428.170959,468.170685 427.080566,475.064606 427.096161,481.956024 
	C427.201324,528.418396 427.627899,574.880005 427.719177,621.342346 
	C427.734467,629.119385 427.308716,637.026001 425.889984,644.650024 
	C423.068359,659.813049 410.687225,665.256531 396.544617,657.928101 
	C396.187622,657.849548 396.157135,657.879578 396.079956,657.619629 
	C395.697388,657.191711 395.391998,657.023804 395.086578,656.855835 
	C395.086578,656.855835 395.052917,656.948486 395.015320,656.672852 
	C394.671906,656.226624 394.366089,656.056091 394.060272,655.885559 
	C394.060272,655.885559 394.060150,655.937622 394.079102,655.918457 
	C392.677551,653.232544 391.257111,650.565796 389.617188,647.612183 
	C389.397705,647.325317 389.382965,647.115234 389.305847,647.043823 
	C388.563263,639.755859 387.849854,632.543152 387.262024,625.320251 
	C387.089783,623.203613 387.274353,621.057922 387.188843,618.479370 
	C387.082245,618.033203 387.240692,617.602905 387.384216,617.150208 
	C387.459625,616.134094 387.391449,615.570618 387.323303,615.007202 
	C387.509888,603.647034 387.696472,592.286926 387.792480,580.466187 
	C387.829041,568.379211 388.046356,556.752991 388.066986,545.126404 
	C388.138123,505.070709 388.140564,465.014893 388.083191,424.502319 
	C388.049500,422.302124 388.101746,420.558777 388.073578,418.384766 
	C388.050140,414.946259 388.107117,411.938354 388.079041,408.488037 
z"/>
<path fill="black" opacity="1.000000" stroke="none" 
	d="
M391.958069,179.942993 
	C391.715210,179.124435 391.002106,178.021988 391.299408,177.529480 
	C396.613892,168.725586 404.716949,163.299622 414.102570,159.863205 
	C434.545319,152.378403 453.262573,155.710754 469.006866,170.812668 
	C483.954224,185.150192 487.816193,203.217651 481.833191,222.614227 
	C475.510376,243.112381 460.721588,255.074966 439.656219,259.033447 
	C425.449432,261.703125 413.068726,257.633667 401.934296,247.655701 
	C403.676178,242.507980 405.208923,237.530334 408.013031,233.420029 
	C413.119232,225.935287 419.113708,219.063721 424.492493,211.755920 
	C431.464752,202.283081 430.813873,189.569138 423.218933,181.623962 
	C414.927795,172.950439 403.712860,172.006805 392.780365,179.135620 
	C392.333862,179.454056 392.135925,179.720657 391.963501,179.985825 
	C391.989014,179.984406 391.958038,179.942993 391.958069,179.942993 
z"/>
</svg>