<svg version="1.1" id="Layer_1" xmlns="http://www.w3.org/2000/svg" xmlns:xlink="http://www.w3.org/1999/xlink" x="0px" y="0px"
	 width="100%" viewBox="0 0 735 805" enable-background="new 0 0 735 805" xml:space="preserve">
<path fill="black" opacity="1.000000" stroke="none" 
	d="
M343.012451,638.000000 
	C343.230835,660.158813 343.711090,681.819702 343.534058,703.475281 
	C343.466553,711.730103 342.633453,720.140381 340.815887,728.178284 
	C338.524902,738.309631 331.520416,744.616211 321.066742,746.127075 
	C316.174591,746.834045 311.046234,747.120544 306.169464,746.486267 
	C292.826630,744.750732 284.495239,736.287598 282.215149,722.099426 
	C280.958191,714.277832 280.082886,706.297058 280.075287,698.387085 
	C279.944427,562.063171 280.003021,425.739014 279.893341,289.415039 
	C279.887695,282.386169 278.746521,275.358246 278.032074,267.160095 
	C261.126007,278.836456 245.212646,289.101379 231.667892,302.524261 
	C228.947678,305.220001 226.318176,308.075500 223.270386,310.353729 
	C220.093491,312.728485 219.613052,315.336273 220.460800,318.998596 
	C224.285004,335.519318 228.555740,351.978912 231.349930,368.680664 
	C233.140884,379.385742 233.122742,390.480621 232.971069,401.387604 
	C232.892838,407.015167 230.059555,412.410309 223.497879,413.249878 
	C216.400085,414.157990 209.211823,412.887543 205.727219,405.943054 
	C201.052994,396.627808 196.471802,387.023163 193.737335,377.026672 
	C187.602570,354.599579 182.161789,331.949066 177.555359,309.163727 
	C176.545044,304.166229 178.904861,297.346497 181.950562,292.898163 
	C189.155655,282.374908 196.877853,271.940491 205.888184,262.974854 
	C223.466385,245.483826 241.831894,228.756714 260.335876,212.233490 
	C271.722809,202.065475 285.845184,198.121353 300.960510,198.063660 
	C331.790314,197.945969 362.620911,198.064392 393.450897,197.982590 
	C410.833649,197.936462 426.470184,202.992340 439.160980,214.913681 
	C460.151886,234.631958 480.806366,254.716553 501.261810,274.990662 
	C506.047211,279.733704 509.714172,285.691895 513.452209,291.382355 
	C517.850220,298.077454 519.889771,305.158783 518.071167,313.576599 
	C512.134583,341.055542 506.534576,368.597534 496.064819,394.832306 
	C494.775726,398.062408 493.049377,401.118713 491.513031,404.249298 
	C488.663818,410.055023 483.688171,412.591309 477.541077,413.365143 
	C470.213806,414.287537 465.019043,411.582977 463.774109,404.339600 
	C462.495972,396.902649 461.584412,388.950989 462.829376,381.617981 
	C466.360870,360.817047 470.967346,340.193695 475.417725,319.558014 
	C476.292847,315.500092 475.502075,313.010864 472.479858,310.029724 
	C458.306396,296.048676 442.764923,283.832825 426.274109,272.760712 
	C423.956055,271.204346 421.631470,269.657684 418.057648,267.269836 
	C417.321259,275.261627 416.118378,282.279205 416.110901,289.298035 
	C415.988037,404.623413 416.015350,519.948914 416.010284,635.274414 
	C416.009247,658.606140 416.355713,681.945190 415.859528,705.266357 
	C415.638306,715.663940 414.448792,726.209351 408.676910,735.447937 
	C407.846405,736.777283 406.806793,738.044739 405.634460,739.081238 
	C394.627960,748.813110 381.841522,748.989075 369.069977,744.397644 
	C357.083008,740.088135 353.889221,729.169983 353.136810,717.766174 
	C352.535706,708.655701 352.969208,699.476013 352.969238,690.327026 
	C352.969574,616.332031 352.976013,542.337097 352.980591,468.342133 
	C352.980682,467.043793 352.980591,465.745453 352.980591,464.240417 
	C349.582672,464.240417 346.645386,464.240417 343.012451,464.240417 
	C343.012451,521.985718 343.012451,579.742859 343.012451,638.000000 
M406.996429,679.545105 
	C406.996429,675.937805 406.996429,672.330566 406.996429,667.534607 
	C391.292786,680.899170 376.402618,693.571411 360.968536,706.706543 
	C376.647858,706.706543 391.638062,706.706543 406.996429,706.706543 
	C406.996429,697.790771 406.996429,689.160461 406.996429,679.545105 
M371.465454,641.024597 
	C368.091888,643.726074 364.718292,646.427490 360.610291,649.717041 
	C376.669800,649.717041 391.656158,649.717041 406.818787,649.717041 
	C406.818787,637.191895 406.818787,624.970398 406.818787,611.721436 
	C394.808197,621.653259 383.396851,631.089478 371.465454,641.024597 
M361.132233,694.120239 
	C361.800476,693.867188 362.595795,693.768555 363.118195,693.338379 
	C374.749573,683.761780 386.363922,674.164368 397.947845,664.530457 
	C400.592834,662.330750 403.112915,659.980957 406.178040,657.268799 
	C390.569122,657.268799 375.986267,657.268799 361.020233,657.268799 
	C361.020233,669.471558 361.020233,681.411438 361.132233,694.120239 
M370.766418,732.950439 
	C377.106812,736.453674 383.652710,738.601929 390.908325,735.961548 
	C400.603119,732.433533 407.799500,723.920654 406.583405,715.231445 
	C391.510071,715.231445 376.411133,715.231445 361.082489,715.231445 
	C360.719635,722.984863 365.028748,727.990601 370.766418,732.950439 
z"/>
<path fill="black" opacity="1.000000" stroke="none" 
	d="
M323.814819,84.782005 
	C351.056915,72.373627 380.613068,81.472862 395.106995,106.470413 
	C408.971100,130.381653 402.055450,161.383896 379.256805,177.525467 
	C354.848358,194.806808 320.745697,188.866974 303.624725,164.352249 
	C286.290253,139.531815 292.502197,105.495117 317.491608,88.522621 
	C319.411469,87.218666 321.475433,86.126839 323.814819,84.782005 
z"/>
<path fill="black" opacity="1.000000" stroke="none" 
	d="
M435.867920,486.230804 
	C432.928436,424.727661 430.003571,363.698792 427.057739,302.231873 
	C432.848022,302.231873 438.385651,302.231873 444.454987,302.231873 
	C451.643127,450.347137 458.823181,598.295471 466.021576,746.622253 
	C460.007172,746.622253 454.447754,746.622253 448.395966,746.622253 
	C444.221466,659.913574 440.052032,573.309326 435.867920,486.230804 
z"/>
<path fill="black" opacity="1.000000" stroke="none" 
	d="
M260.536163,476.789062 
	C256.216980,566.901978 251.941528,656.540588 247.647018,746.578796 
	C241.870834,746.578796 236.319199,746.578796 229.985931,746.578796 
	C237.170761,598.488770 244.354446,450.422058 251.550644,302.097443 
	C257.513062,302.097443 262.941742,302.097443 268.961212,302.097443 
	C266.159576,360.333405 263.369720,418.324036 260.536163,476.789062 
z"/>
<path fill="white" opacity="1.000000" stroke="none" 
	d="
M406.996429,680.037598 
	C406.996429,689.160461 406.996429,697.790771 406.996429,706.706543 
	C391.638062,706.706543 376.647858,706.706543 360.968536,706.706543 
	C376.402618,693.571411 391.292786,680.899170 406.996429,667.534607 
	C406.996429,672.330566 406.996429,675.937805 406.996429,680.037598 
z"/>
<path fill="white" opacity="1.000000" stroke="none" 
	d="
M371.725464,640.775146 
	C383.396851,631.089478 394.808197,621.653259 406.818787,611.721436 
	C406.818787,624.970398 406.818787,637.191895 406.818787,649.717041 
	C391.656158,649.717041 376.669800,649.717041 360.610291,649.717041 
	C364.718292,646.427490 368.091888,643.726074 371.725464,640.775146 
z"/>
<path fill="white" opacity="1.000000" stroke="none" 
	d="
M361.076233,693.735718 
	C361.020233,681.411438 361.020233,669.471558 361.020233,657.268799 
	C375.986267,657.268799 390.569122,657.268799 406.178040,657.268799 
	C403.112915,659.980957 400.592834,662.330750 397.947845,664.530457 
	C386.363922,674.164368 374.749573,683.761780 363.118195,693.338379 
	C362.595795,693.768555 361.800476,693.867188 361.076233,693.735718 
z"/>
<path fill="white" opacity="1.000000" stroke="none" 
	d="
M370.440002,732.774170 
	C365.028748,727.990601 360.719635,722.984863 361.082489,715.231445 
	C376.411133,715.231445 391.510071,715.231445 406.583405,715.231445 
	C407.799500,723.920654 400.603119,732.433533 390.908325,735.961548 
	C383.652710,738.601929 377.106812,736.453674 370.440002,732.774170 
z"/>
</svg>