<svg version="1.1" id="Layer_1" xmlns="http://www.w3.org/2000/svg" xmlns:xlink="http://www.w3.org/1999/xlink" x="0px" y="0px"
	 width="100%" viewBox="0 0 143 142" enable-background="new 0 0 143 142" xml:space="preserve">
<path fill="black" opacity="1.000000" stroke="none" 
	d="
M0.999998,118.468674 
	C9.259212,109.870003 17.709932,101.921967 25.688068,93.524918 
	C29.117678,89.915222 31.752087,89.776245 35.737991,92.455353 
	C42.723652,97.150742 50.050934,101.337860 57.909187,106.150772 
	C45.970951,118.515472 34.483513,130.413284 22.998039,142.655548 
	C15.735641,143.000000 8.471281,143.000000 1.000000,143.000000 
	C1.000000,134.980301 1.000000,126.958824 0.999998,118.468674 
z"/>
<path fill="black" opacity="1.000000" stroke="none" 
	d="
M144.000000,19.530624 
	C138.252594,25.448236 132.426697,30.816807 126.787041,36.374386 
	C123.363037,39.748566 120.226913,43.414871 117.254448,46.632763 
	C110.631401,37.642632 104.526917,29.356384 98.030510,20.538157 
	C103.463242,14.826597 109.713707,8.255339 115.982086,1.342040 
	C125.245270,1.000000 134.490540,1.000000 144.000000,1.000000 
	C144.000000,7.017857 144.000000,13.039553 144.000000,19.530624 
z"/>
<path fill="black" opacity="1.000000" stroke="none" 
	d="
M79.630997,119.725571 
	C77.926231,123.186356 76.589241,126.430374 74.880592,129.465134 
	C68.555214,140.699722 54.595921,144.524246 44.382603,137.902069 
	C42.068291,136.401489 39.691288,134.645035 41.548729,131.495346 
	C43.386948,128.378265 45.785576,130.135742 48.029102,131.260361 
	C56.220039,135.366226 63.319241,133.691452 67.412849,125.543625 
	C74.296638,111.842255 83.415131,100.039764 94.059792,89.056389 
	C104.427917,78.358360 106.100426,60.638954 99.308525,47.028477 
	C92.077293,32.537605 77.247864,24.583689 60.098408,25.997732 
	C45.617260,27.191761 32.433529,38.004593 28.057989,52.295067 
	C27.294012,54.790211 26.591713,57.304245 25.854465,59.831699 
	C17.945723,56.990078 17.474068,56.049053 20.034870,48.934895 
	C27.483683,28.241383 45.750088,15.963771 67.377144,17.114185 
	C87.847954,18.203094 106.135986,33.281307 110.542465,54.012348 
	C114.078796,70.649612 109.889259,85.547256 97.828094,98.149048 
	C91.419022,104.845398 85.802475,112.300270 79.630997,119.725571 
z"/>
<path fill="black" opacity="1.000000" stroke="none" 
	d="
M61.589989,31.617672 
	C75.241974,30.944710 85.901886,35.794907 92.866577,47.177818 
	C99.578026,58.146839 99.539146,69.603485 93.393883,80.910378 
	C90.667442,85.926834 89.737534,85.974747 84.924767,81.825638 
	C85.735046,80.366020 86.620750,78.833626 87.448029,77.270317 
	C94.118744,64.664673 89.941635,49.926540 77.639877,42.627560 
	C65.911461,35.668755 51.527794,39.389835 43.720703,51.455872 
	C42.246719,53.733952 41.273624,56.283413 37.704510,53.903915 
	C34.290768,51.628006 35.874893,49.373260 37.247700,47.115788 
	C42.714638,38.125839 50.885620,33.250526 61.589989,31.617672 
z"/>
</svg>