<svg version="1.1" id="Layer_1" xmlns="http://www.w3.org/2000/svg" xmlns:xlink="http://www.w3.org/1999/xlink" x="0px" y="0px"
	 width="100%" viewBox="0 0 917 846" enable-background="new 0 0 917 846" xml:space="preserve">
<path fill="black" opacity="1.000000" stroke="none" 
	d="
M370.794342,758.136536 
	C383.533295,761.830078 395.927277,764.837891 408.954742,764.389099 
	C423.576447,763.885315 434.961304,757.736572 440.966431,744.378540 
	C447.566376,729.697571 453.050537,714.502869 458.720306,699.418945 
	C466.089996,679.812744 472.672852,659.897888 480.485748,640.474426 
	C490.827271,614.764465 509.166016,596.018250 533.354797,582.699219 
	C566.082825,564.678223 595.008484,541.398743 622.866150,516.775635 
	C635.898926,505.256134 643.189270,489.826874 649.628601,473.972717 
	C659.678223,449.229675 666.350586,424.010895 665.204102,396.850555 
	C662.489197,332.531403 619.146606,248.893143 524.008545,230.780518 
	C440.790894,214.937317 360.910950,257.152679 327.557678,334.756409 
	C325.263763,340.093689 322.667542,345.327423 319.843353,350.404297 
	C315.387177,358.414734 308.703949,362.409210 299.217499,361.301605 
	C289.105499,360.120911 280.927124,356.248749 276.989075,346.214386 
	C274.747131,340.501709 274.170380,334.685455 276.409882,328.682373 
	C292.645599,285.162445 318.944733,249.037399 355.764862,220.680145 
	C380.930328,201.298798 408.960358,188.222534 440.236389,181.933929 
	C519.650208,165.966324 589.244751,185.142731 647.608643,241.254639 
	C685.090698,277.290527 706.407227,322.120728 713.097778,373.836456 
	C720.447083,430.644592 706.466003,482.485107 676.490662,530.438110 
	C666.132629,547.008240 650.897217,559.278259 636.161682,571.777710 
	C613.256836,591.206848 588.882690,608.567383 562.733398,623.431580 
	C556.681580,626.871765 551.018738,631.076355 545.482910,635.327759 
	C533.579895,644.469116 526.656067,656.825073 521.869141,670.941284 
	C512.906128,697.372192 503.662109,723.729370 493.628998,749.768127 
	C487.261841,766.292664 478.255127,781.544312 465.093353,793.867554 
	C445.096100,812.590942 420.984344,819.025757 394.495636,815.369812 
	C379.784454,813.339478 365.323364,809.044556 350.978790,804.964355 
	C340.857971,802.085632 335.415558,793.595154 334.990173,782.710388 
	C334.549927,771.446838 339.294464,763.844238 349.022675,759.000916 
	C356.135559,755.459656 363.168457,756.189636 370.794342,758.136536 
z"/>
<path fill="black" opacity="1.000000" stroke="none" 
	d="
M622.370789,433.329651 
	C620.487183,439.084869 618.908997,444.519135 616.944702,449.810089 
	C612.651672,461.373352 601.486450,466.731140 588.891235,463.475311 
	C576.064575,460.159637 567.788574,449.266022 569.689575,437.537750 
	C571.124329,428.686279 573.499756,419.986450 574.911743,411.132233 
	C578.709106,387.319122 571.947693,366.280853 556.927979,347.859528 
	C532.789246,318.254028 489.590393,308.140167 455.598969,323.936615 
	C440.964081,330.737762 429.955414,341.754120 421.301575,355.101837 
	C416.149384,363.048706 411.650879,371.425201 406.986511,379.680847 
	C402.344757,387.896393 393.612396,392.036865 384.259827,390.343842 
	C376.748566,388.984161 370.475525,385.494873 365.698334,379.541107 
	C361.341248,374.110901 360.373016,368.147034 362.226044,361.275513 
	C372.604309,322.790253 398.003235,297.448151 432.156250,278.973083 
	C496.769012,244.020813 588.391418,275.418488 617.009094,349.870667 
	C627.517273,377.208832 630.237366,404.618622 622.370789,433.329651 
z"/>
<path fill="black" opacity="1.000000" stroke="none" 
	d="
M605.921143,40.636185 
	C631.242615,44.982758 654.923279,53.126060 677.563477,64.235695 
	C728.180054,89.073395 766.682495,127.131355 796.742554,174.261688 
	C813.983398,201.293167 827.766113,230.045349 838.895752,260.082825 
	C843.573730,272.708069 838.417786,284.761292 826.634521,289.146698 
	C815.151733,293.420319 803.377747,287.639435 798.655212,275.212006 
	C784.756287,238.636719 767.457520,203.913696 743.283508,172.904495 
	C706.904114,126.238815 660.171570,95.934517 602.108032,83.500275 
	C589.562927,80.813744 582.884155,71.914650 583.888611,59.440323 
	C584.729797,48.992794 593.443848,41.406712 605.921143,40.636185 
z"/>
<path fill="black" opacity="1.000000" stroke="none" 
	d="
M761.622131,302.556946 
	C748.757507,316.437225 729.696716,312.889862 722.945312,295.518280 
	C711.856323,266.985992 698.323425,239.866196 678.189819,216.471848 
	C654.872070,189.377701 626.078674,171.389267 590.930542,163.894043 
	C577.369507,161.002213 569.289246,149.052292 572.316284,136.696335 
	C575.421936,124.019104 587.446533,117.382568 601.001099,120.425629 
	C663.267883,134.404800 707.688477,171.932495 738.884094,226.095551 
	C748.708740,243.153473 756.069946,261.644043 764.320557,279.588379 
	C767.944458,287.470032 766.856445,295.168549 761.622131,302.556946 
z"/>
<path fill="black" opacity="1.000000" stroke="none" 
	d="
M314.105408,587.014038 
	C312.624115,588.053345 311.428345,588.893799 309.869446,589.989441 
	C293.359955,568.203674 277.013062,546.632446 260.418213,524.734009 
	C271.962616,515.997070 283.073029,507.588562 294.338135,499.062988 
	C310.869904,520.889404 327.147278,542.380005 343.841064,564.420349 
	C333.870209,572.002502 324.130585,579.408875 314.105408,587.014038 
z"/>
<path fill="black" opacity="1.000000" stroke="none" 
	d="
M210.657806,601.323730 
	C217.955872,609.521057 219.447174,618.363525 215.187759,626.836731 
	C211.137360,634.894104 202.974548,639.509827 193.910019,638.868408 
	C185.582016,638.279175 177.955582,632.189026 175.101349,623.848633 
	C172.135040,615.180786 175.516098,605.007629 183.200989,599.478027 
	C191.508606,593.500366 201.418259,594.085693 210.657806,601.323730 
z"/>
<path fill="black" opacity="1.000000" stroke="none" 
	d="
M95.688934,708.322998 
	C83.626617,705.430420 76.194138,696.074158 77.147881,685.449158 
	C78.155319,674.226135 87.153214,665.536499 98.147469,665.168823 
	C110.362701,664.760376 120.853783,674.606140 120.648460,686.925293 
	C120.407936,701.356140 108.172951,710.117249 95.688934,708.322998 
z"/>
<path fill="black" opacity="1.000000" stroke="none" 
	d="
M494.076355,428.257263 
	C480.627563,432.184296 468.420044,425.616608 465.271454,413.106720 
	C462.266846,401.168640 469.914734,389.492523 482.623993,386.614563 
	C492.134277,384.460968 502.856537,390.466583 506.730530,400.116730 
	C510.511627,409.535492 506.780548,420.829620 498.012665,426.360046 
	C496.897400,427.063507 495.631744,427.528564 494.076355,428.257263 
z"/>
<path fill="black" opacity="1.000000" stroke="none" 
	d="
M393.523254,499.078705 
	C377.743256,499.664032 367.932648,491.203644 367.989899,477.475311 
	C368.034912,466.684082 375.935455,457.618134 386.595520,456.125183 
	C397.173889,454.643646 407.266937,461.254395 410.305115,471.654480 
	C413.341827,482.049408 408.384796,493.044006 398.632080,497.421326 
	C397.134888,498.093292 395.522461,498.508423 393.523254,499.078705 
z"/>
</svg>