<svg version="1.1" id="Layer_1" xmlns="http://www.w3.org/2000/svg" xmlns:xlink="http://www.w3.org/1999/xlink" x="0px" y="0px"
	 width="100%" viewBox="0 0 1024 1024" enable-background="new 0 0 1024 1024" xml:space="preserve">

<path fill="black" opacity="1.000000" stroke="none" 
	d="
M413.906616,499.985443 
	C416.201965,512.387878 413.799591,510.200897 425.346985,510.219086 
	C481.671326,510.307709 537.995911,510.247559 594.320374,510.240112 
	C596.306152,510.239868 598.291870,510.240082 600.301331,510.240082 
	C613.896912,543.865906 627.349365,577.135010 640.799561,610.404968 
	C646.222168,623.818237 651.751770,637.190125 656.984802,650.677002 
	C658.378967,654.270081 660.294617,653.413940 662.853394,652.563782 
	C684.947876,645.222229 707.074951,637.978943 729.170105,630.639465 
	C731.853943,629.747925 733.781372,629.275391 734.707275,632.960144 
	C737.909241,645.702881 741.364624,658.381897 744.668335,671.099487 
	C744.906494,672.016296 744.699585,673.048828 744.699585,674.305664 
	C729.651855,679.055725 714.621887,683.838867 699.567261,688.543091 
	C678.298462,695.189026 656.987427,701.701233 635.754456,708.459412 
	C631.986145,709.658936 630.331055,709.096069 628.846741,705.144104 
	C613.353760,663.895386 597.654480,622.724060 581.974548,581.545715 
	C578.778687,573.152954 575.223938,564.891235 572.238647,556.426636 
	C570.958862,552.797791 569.078674,551.796021 565.347595,551.804993 
	C513.522705,551.929871 461.697327,551.889771 409.872101,551.889404 
	C399.373749,551.889343 388.873352,551.770630 378.378113,551.950806 
	C374.805939,552.012146 373.697906,550.837402 373.172638,547.217957 
	C368.775330,516.917542 364.077759,486.660706 359.500244,456.386261 
	C354.376129,422.496613 349.358978,388.590515 344.107269,354.720703 
	C343.143188,348.503082 340.896240,342.486359 339.900543,336.271301 
	C335.616730,309.530457 352.897919,284.108978 378.892212,278.558716 
	C405.740265,272.826141 431.718353,288.218140 439.259979,314.326599 
	C447.275604,342.076019 430.869537,370.765533 402.859192,377.981476 
	C400.636078,378.554169 398.413361,379.128448 395.774109,379.809387 
	C397.594330,392.200043 399.355347,404.350983 401.172211,416.493530 
	C402.254913,423.729706 403.750244,430.922333 404.430786,438.193420 
	C404.819733,442.349457 406.397949,443.343903 410.319977,443.326294 
	C441.314514,443.187439 472.309937,443.249786 503.305084,443.250122 
	C518.969299,443.250275 534.633545,443.250183 550.297729,443.250153 
	C551.921814,443.250153 553.545959,443.250122 555.542847,443.250122 
	C555.542847,457.142059 555.542847,470.557770 555.542847,484.703674 
	C507.897461,484.703674 460.201752,484.703674 411.681885,484.703674 
	C412.486511,490.195648 413.171814,494.873230 413.906616,499.985443 
z"/>
<path fill="black" opacity="1.000000" stroke="none" 
	d="
M383.644165,693.475708 
	C431.137939,717.274841 483.017334,709.976501 520.563721,673.603333 
	C539.517883,655.241516 550.690796,632.468262 554.305847,606.167664 
	C554.453857,605.090759 554.766479,604.036499 555.230286,601.942871 
	C556.217529,603.830383 556.816528,604.753601 557.208191,605.757690 
	C563.436890,621.725708 569.512512,637.755188 575.931519,653.645996 
	C577.650452,657.901306 577.502380,661.342712 575.236084,665.371643 
	C547.831543,714.090271 506.656342,742.464050 450.903320,747.882690 
	C405.271912,752.317688 364.979309,738.513611 331.250153,707.392761 
	C293.566772,672.623596 277.132935,628.915527 281.466614,578.142578 
	C285.358887,532.541321 306.687042,495.815674 342.863800,467.760345 
	C343.375885,467.363251 343.971039,467.073181 345.449432,466.169739 
	C346.091064,469.287109 346.677460,471.920410 347.170776,474.571014 
	C349.058838,484.715851 350.726532,494.906921 352.883331,504.993774 
	C353.704834,508.835693 352.978821,511.606873 350.438751,514.515564 
	C336.201538,530.818542 327.264526,549.687073 323.764191,571.065430 
	C318.217438,604.942017 326.177979,635.447144 347.023346,662.595276 
	C356.876556,675.427551 369.216034,685.433044 383.644165,693.475708 
z"/>
</svg>